<svg width="72" height="73" viewBox="0 0 72 73" fill="none" xmlns="http://www.w3.org/2000/svg">
<path d="M36.4627 49.5695C70.8502 14.1992 71.9543 2.56613 71.9812 2.0141C71.9947 1.71789 71.8735 1.42168 71.6581 1.21971C71.4426 1.01775 71.1464 0.923501 70.8368 0.963893C70.3251 1.03121 59.5538 2.84888 23.8064 36.8594C23.591 36.9536 23.4159 37.1152 23.3217 37.3306C20.8039 39.7272 18.1784 42.272 15.4182 44.9917C15.1355 45.0994 14.9335 45.3014 14.8393 45.5707C10.5846 49.7715 6.04715 54.3493 1.18658 59.3715C0.796124 59.7754 0.809601 60.4082 1.20006 60.7987C1.26738 60.866 7.62247 67.073 12.308 71.7585C12.51 71.9605 12.7658 72.0547 13.0216 72.0547C13.264 72.0547 13.5198 71.9605 13.7083 71.7854C22.5004 63.5857 29.973 56.2612 36.3146 49.7446C36.3685 49.6773 36.4223 49.6234 36.4627 49.5695ZM26.8089 36.792C27.4552 36.7382 30.2557 36.6978 33.1371 39.8215C36.2069 43.1471 36.6378 45.6245 36.7051 46.392C36.5839 46.5132 36.4762 46.6344 36.355 46.7555C35.8972 45.2341 34.874 43.0394 32.5043 40.4678C30.4038 38.1923 28.29 37.2633 26.6877 36.8998C26.7281 36.8728 26.7685 36.8324 26.8089 36.792ZM38.4016 44.6417C37.9573 43.1471 36.9474 40.9929 34.6316 38.4616C32.5177 36.1592 30.3634 35.2706 28.7881 34.9475C54.0335 11.3717 65.68 5.09739 69.5576 3.49516C68.2112 7.45362 62.4755 19.3694 38.4016 44.6417ZM13.0351 69.6177C12.7658 69.3484 12.483 69.0657 12.2137 68.7964L21.8945 58.981C22.2849 58.5905 22.2849 57.9443 21.881 57.5538C21.4771 57.1633 20.8443 57.1633 20.4538 57.5673L10.7865 67.3692C10.5711 67.1538 10.3422 66.9249 10.1268 66.7094L19.821 56.8806C20.2115 56.4901 20.2115 55.8438 19.8076 55.4534C19.4036 55.0629 18.7708 55.0629 18.3804 55.4669L8.68614 65.2957C8.45725 65.0668 8.24183 64.8648 8.02641 64.6359L17.7475 54.7802C18.138 54.3897 18.138 53.7434 17.7341 53.353C17.3301 52.9625 16.6973 52.9625 16.3069 53.3664L6.58573 63.2222C6.35684 62.9933 6.14143 62.7779 5.926 62.5625L15.674 52.6798C16.0645 52.2893 16.0645 51.643 15.6606 51.2526C15.2701 50.8621 14.6238 50.8621 14.2334 51.266L4.48532 61.1622C4.04101 60.7313 3.63707 60.3274 3.34086 60.0447C7.986 55.2514 12.3215 50.889 16.4011 46.8767C17.4109 46.8632 19.9691 47.146 22.5947 50.0004C26.2165 53.9454 26.2703 56.719 26.2569 56.9748C22.2176 60.9333 17.8418 65.1341 13.0351 69.6177ZM28.0072 55.238C27.6033 53.703 26.5935 51.3872 24.0622 48.6271C21.9618 46.3381 19.821 45.4091 18.2188 45.059C20.4942 42.824 22.6889 40.7101 24.7893 38.7174C25.7587 38.6905 28.3573 38.9463 31.0232 41.8411C34.0661 45.1533 34.5912 47.6442 34.672 48.5059C32.585 50.6601 30.3635 52.9087 28.0072 55.238Z" fill="black"/>
</svg>
