<svg width="40" height="40" viewBox="0 0 40 40" fill="none" xmlns="http://www.w3.org/2000/svg">
<circle cx="20" cy="20" r="19" fill="white" stroke="#696A86" stroke-width="2"/>
<path d="M23.9995 11.5592L21.6942 11.5555C19.1042 11.5555 17.4304 13.2728 17.4304 15.9307V17.9479H15.1125C14.9122 17.9479 14.75 18.1103 14.75 18.3106V21.2333C14.75 21.4336 14.9124 21.5958 15.1125 21.5958H17.4304V28.9708C17.4304 29.1711 17.5926 29.3333 17.7929 29.3333H20.8172C21.0175 29.3333 21.1797 29.1709 21.1797 28.9708V21.5958H23.8899C24.0902 21.5958 24.2524 21.4336 24.2524 21.2333L24.2535 18.3106C24.2535 18.2144 24.2152 18.1223 24.1473 18.0543C24.0794 17.9862 23.987 17.9479 23.8908 17.9479H21.1797V16.2379C21.1797 15.416 21.3755 14.9987 22.4462 14.9987L23.9992 14.9982C24.1993 14.9982 24.3615 14.8358 24.3615 14.6357V11.9217C24.3615 11.7218 24.1995 11.5596 23.9995 11.5592Z" fill="#696A86"/>
</svg>
