<svg width="34" height="51" viewBox="0 0 34 51" fill="none" xmlns="http://www.w3.org/2000/svg">
<path fill-rule="evenodd" clip-rule="evenodd" d="M16.9997 6.01001C10.8597 6.01001 5.92969 11.02 5.92969 17.17C5.92969 23.32 10.8597 28.32 16.9997 28.32C23.1397 28.32 28.0697 23.31 28.0697 17.16C28.0697 11.01 23.1397 6.01001 16.9997 6.01001ZM16.9997 26.32C11.9897 26.32 7.92969 22.23 7.92969 17.16C7.92969 12.09 11.9897 8.01001 16.9997 8.01001C22.0097 8.01001 26.0697 12.1 26.0697 17.17C26.0697 22.24 22.0097 26.32 16.9997 26.32Z" fill="black"/>
<path fill-rule="evenodd" clip-rule="evenodd" d="M17 0C7.62 0 0 7.69 0 17.16C0 19.85 0.62 22.4 1.71 24.67C2.09 25.45 17 51 17 51C17 51 31.95 25.39 32.33 24.58C33.4 22.33 34 19.82 34 17.16C34 7.69 26.38 0 17 0ZM17 47.02C17 47.02 4.14 24.99 3.91 24.58C2.7 22.38 2 19.86 2 17.16C2 8.78 8.74 2 17 2C25.26 2 32 8.78 32 17.16C32 19.85 31.31 22.37 30.09 24.56C29.86 24.98 17 47.02 17 47.02Z" fill="black"/>
</svg>
