<svg width="40" height="40" viewBox="0 0 40 40" fill="none" xmlns="http://www.w3.org/2000/svg">
<circle cx="20" cy="20" r="19" fill="white" stroke="#696A86" stroke-width="2"/>
<path d="M23.2228 10.6667H15.8894C12.5149 10.6667 9.77832 13.4032 9.77832 16.7778V24.1111C9.77832 27.4857 12.5149 30.2222 15.8894 30.2222H23.2228C26.5973 30.2222 29.3339 27.4857 29.3339 24.1111V16.7778C29.3339 13.4032 26.5973 10.6667 23.2228 10.6667ZM27.5005 24.1111C27.5005 26.47 25.5817 28.3889 23.2228 28.3889H15.8894C13.5305 28.3889 11.6117 26.47 11.6117 24.1111V16.7778C11.6117 14.4189 13.5305 12.5 15.8894 12.5H23.2228C25.5817 12.5 27.5005 14.4189 27.5005 16.7778V24.1111Z" fill="#696A86"/>
<path d="M19.5559 15.5555C16.856 15.5555 14.667 17.7445 14.667 20.4444C14.667 23.1443 16.856 25.3333 19.5559 25.3333C22.2558 25.3333 24.4448 23.1443 24.4448 20.4444C24.4448 17.7445 22.2558 15.5555 19.5559 15.5555ZM19.5559 23.5C17.8717 23.5 16.5003 22.1287 16.5003 20.4444C16.5003 18.759 17.8717 17.3889 19.5559 17.3889C21.2401 17.3889 22.6114 18.759 22.6114 20.4444C22.6114 22.1287 21.2401 23.5 19.5559 23.5Z" fill="#696A86"/>
<path d="M24.8106 15.8404C25.1704 15.8404 25.4621 15.5487 25.4621 15.1889C25.4621 14.8291 25.1704 14.5375 24.8106 14.5375C24.4508 14.5375 24.1592 14.8291 24.1592 15.1889C24.1592 15.5487 24.4508 15.8404 24.8106 15.8404Z" fill="#696A86"/>
</svg>
