<svg width="67" height="90" viewBox="0 0 67 90" fill="none" xmlns="http://www.w3.org/2000/svg">
<path d="M24.9141 48.629C11.5094 48.629 0.599609 37.7193 0.599609 24.3145C0.599609 10.9098 11.5094 0 24.9141 0C38.3189 0 49.2286 10.9098 49.2286 24.3145C49.2286 37.7193 38.3189 48.629 24.9141 48.629ZM24.9141 2.26815C12.7569 2.26815 2.86775 12.1573 2.86775 24.3145C2.86775 36.4718 12.7569 46.3609 24.9141 46.3609C37.0714 46.3609 46.9605 36.4718 46.9605 24.3145C46.9605 12.1573 37.0714 2.26815 24.9141 2.26815Z" fill="black"/>
<path d="M53.9238 87.1988C53.731 87.1988 53.5269 87.1987 53.3228 87.1874C48.4576 87.04 43.1501 85.1914 38.353 81.9593C33.5559 78.7272 29.8361 74.4971 27.8855 70.0516C25.8782 65.4699 25.9462 61.1945 28.101 58.0077C32.4558 51.5435 44.1481 51.7703 54.162 58.5181C64.1758 65.2658 68.7688 76.0168 64.414 82.481C62.35 85.5317 58.6415 87.1988 53.9238 87.1988ZM38.5911 54.889C34.6106 54.889 31.2764 56.2159 29.4619 58.915C27.636 61.6254 27.6133 65.3452 29.3825 69.3825C31.2197 73.5559 34.724 77.5365 39.2716 80.5985C43.8079 83.6604 48.8205 85.4183 53.3681 85.5544C57.8137 85.6791 61.2159 84.2615 63.0418 81.5511C66.8976 75.8354 62.4974 66.105 53.232 59.8676C48.3555 56.5675 43.0594 54.889 38.5911 54.889Z" fill="black"/>
<path d="M40.0542 83.0253C36.085 85.9739 30.7775 87.7998 24.9257 87.7998C12.7004 87.7998 2.76594 79.918 2.76594 70.2216C2.76594 60.5253 12.7118 52.6435 24.9257 52.6435C28.0104 52.6435 30.9476 53.1538 33.6241 54.0611C34.7354 53.6982 35.9376 53.46 37.2077 53.358C33.6014 51.6228 29.4166 50.6135 24.9257 50.6135C11.589 50.6135 0.724609 59.4139 0.724609 70.2216C0.724609 81.0293 11.5777 89.8298 24.9257 89.8298C31.5827 89.8298 37.6273 87.641 42.0049 84.1027C41.3358 83.7625 40.6893 83.3996 40.0542 83.0253Z" fill="black"/>
<path d="M26.8761 35.9274C26.7627 35.9274 26.6379 35.9047 26.5359 35.848C26.1389 35.6552 25.9688 35.1789 26.1616 34.782L35.6425 15.1058C35.8352 14.7089 36.3116 14.5388 36.7085 14.7316C37.1054 14.9243 37.2755 15.4007 37.0827 15.7976L27.6019 35.4737C27.4545 35.7686 27.1709 35.9274 26.8761 35.9274Z" fill="black"/>
<path d="M28.6222 41.6998C28.5088 41.6998 28.384 41.6772 28.2819 41.6204C27.885 41.4277 27.7149 40.9513 27.9077 40.5544L37.3885 20.8783C37.5813 20.4813 38.0577 20.3112 38.4546 20.504C38.8515 20.6968 39.0216 21.1731 38.8288 21.57L29.348 41.2462C29.2005 41.5297 28.917 41.6998 28.6222 41.6998Z" fill="black"/>
<path d="M19.2091 52.7117C18.7555 52.7117 18.3926 52.3488 18.3926 51.8952V46.996C18.3926 46.5423 18.7555 46.1794 19.2091 46.1794C19.6627 46.1794 20.0256 46.5423 20.0256 46.996V51.8952C20.0256 52.3488 19.6514 52.7117 19.2091 52.7117Z" fill="black"/>
<path d="M30.63 52.7117C30.1764 52.7117 29.8135 52.3488 29.8135 51.8952V46.996C29.8135 46.5423 30.1764 46.1794 30.63 46.1794C31.0836 46.1794 31.4465 46.5423 31.4465 46.996V51.8952C31.4465 52.3488 31.0836 52.7117 30.63 52.7117Z" fill="black"/>
<path d="M36.3909 80.5192C33.2949 82.5265 29.2916 83.7513 24.9141 83.7513C15.127 83.7513 7.17717 77.684 7.17717 70.2218C7.17717 62.7596 15.1384 56.6923 24.9141 56.6923C26.275 56.6923 27.6018 56.8171 28.872 57.0439C29.3143 56.5449 29.8019 56.1139 30.3349 55.717C28.6111 55.3201 26.7966 55.1046 24.9141 55.1046C14.2538 55.1046 5.57812 61.8864 5.57812 70.2331C5.57812 78.5799 14.2538 85.3617 24.9141 85.3617C29.8359 85.3617 34.3155 83.8987 37.7291 81.5285C37.2755 81.1883 36.8218 80.8594 36.3909 80.5192Z" fill="black"/>
</svg>
