<svg width="77" height="91" viewBox="0 0 77 91" fill="none" xmlns="http://www.w3.org/2000/svg">
<path d="M10.2393 42.5412L29.8133 39.3545" stroke="black" stroke-width="2" stroke-miterlimit="10" stroke-linecap="round" stroke-linejoin="round"/>
<path d="M10.2393 38.2318L29.8133 35.045" stroke="black" stroke-width="2" stroke-miterlimit="10" stroke-linecap="round" stroke-linejoin="round"/>
<path d="M10.2393 33.9222L29.8133 30.7468" stroke="black" stroke-width="2" stroke-miterlimit="10" stroke-linecap="round" stroke-linejoin="round"/>
<path d="M30.6294 43.7544H27.6581V30.0889H12.3935V43.7658H9.42222C4.88593 43.7658 1.2002 47.4402 1.2002 51.9878V80.8726C1.2002 85.4089 4.87459 89.0947 9.42222 89.0947H30.6294C35.1657 89.0947 38.8514 85.4203 38.8514 80.8726V51.9765C38.8514 47.4402 35.1657 43.7544 30.6294 43.7544Z" stroke="black" stroke-width="2" stroke-miterlimit="10" stroke-linecap="round" stroke-linejoin="round"/>
<path d="M67.1466 1.28345H59.3555L61.6236 19.973H64.8784L67.1466 1.28345Z" stroke="black" stroke-width="2" stroke-miterlimit="10" stroke-linecap="round" stroke-linejoin="round"/>
<path d="M74.8012 89.5483H51.6888L50.5547 42.8245H75.9352L74.8012 89.5483Z" stroke="black" stroke-width="2" stroke-miterlimit="10" stroke-linecap="round" stroke-linejoin="round"/>
<path d="M66.0122 19.9729H60.4893V42.8245H66.0122V19.9729Z" stroke="black" stroke-width="2" stroke-miterlimit="10" stroke-linecap="round" stroke-linejoin="round"/>
</svg>
