<svg width="47" height="90" viewBox="0 0 47 90" fill="none" xmlns="http://www.w3.org/2000/svg">
<path d="M46.1542 51.5827C45.2551 38.341 42.3288 22.7126 39.4843 16.01C39.1247 15.1599 38.716 14.4243 38.291 13.7867C42.9828 6.59368 42.6558 1.36239 42.6394 1.13352C42.5904 0.463265 41.9855 -0.0598637 41.3316 0.00552741C40.6614 0.0545707 40.1546 0.64309 40.1873 1.31335C40.1873 1.36239 40.4162 5.7436 36.5745 11.9067C35.3811 11.0239 34.0732 10.7951 32.7491 11.3345C29.2833 12.7731 29.8719 17.0072 30.771 20.5547L30.8037 20.6528C20.7661 36.0197 0.952664 66.8516 0.6911 67.2276C0.511275 67.5055 0.462271 67.8324 0.527662 68.1594C0.593053 68.4863 0.789155 68.7643 1.06707 68.9277L9.69874 74.3225C9.89491 74.4533 10.1237 74.5023 10.3526 74.5023C10.7613 74.5023 11.1536 74.3061 11.3825 73.9301L32.9779 40.0576C33.1578 39.7633 33.2069 39.42 33.1251 39.0767C33.0434 38.7497 32.8145 38.4718 32.5039 38.3084C32.4712 38.292 28.9073 36.3793 28.0573 33.0934C27.5995 31.3115 28.0246 29.3825 29.3161 27.3717C29.3488 27.3227 29.3651 27.2736 29.3978 27.2246C30.1661 26.0475 30.8855 24.9359 31.5884 23.8569C33.0107 29.6604 35.2339 40.3355 35.0214 52.4982C34.7599 67.5382 32.4384 83.9513 32.4221 84.1148C32.373 84.5072 32.5039 84.8831 32.7818 85.1611L37.3755 89.6567C37.6044 89.8856 37.915 90 38.242 90C38.4708 90 38.6997 89.9346 38.8958 89.8038L44.3887 86.2891C44.6993 86.0929 44.9118 85.7496 44.9445 85.3736C44.9936 85.2428 47.0534 64.8571 46.1542 51.5827ZM25.5887 33.1915C25.6214 33.3877 25.6705 33.5838 25.7195 33.7637C26.1119 35.235 26.8639 36.4611 27.6976 37.4746L6.82151 69.647L3.43751 67.5218C6.18394 63.2714 16.7609 46.8255 25.5887 33.1915ZM9.99298 71.6251L8.89771 70.9385L29.4959 39.2075C29.7738 39.4364 30.0353 39.6325 30.2805 39.796L9.99298 71.6251ZM38.4381 87.2699L34.9887 83.8859C35.4137 80.7472 37.2938 66.1323 37.5227 52.58C37.7842 37.867 34.5474 25.3282 33.3377 20.6037L33.1741 19.9498C31.7682 14.4079 33.1251 13.8521 33.7136 13.6069C35.4138 12.9039 36.9668 16.2716 37.2447 16.9582C39.9421 23.3338 42.852 38.9459 43.7184 51.7462C44.5195 63.5493 42.9338 81.1722 42.6068 84.6052L38.4381 87.2699Z" fill="black"/>
</svg>
