<svg width="200" height="78" viewBox="0 0 200 78" fill="none" xmlns="http://www.w3.org/2000/svg">
<path d="M199.443 46.7885C198.789 46.2887 198.151 46.2477 197.537 46.6738L197.308 46.9032L197.194 47.0753L197.022 47.2474C196.908 47.444 196.793 47.6161 196.679 47.7718C196.335 48.2388 195.983 48.6813 195.64 49.0992C194.716 50.2955 193.865 51.3607 193.096 52.2866C190.782 54.9906 189.342 56.2033 188.761 55.9329C188.107 55.5478 189.015 53.2125 191.477 48.9271L192.687 46.7885C193.186 45.9363 193.595 45.2235 193.898 44.6499C194.748 43.1094 195.321 41.8885 195.632 41.0036C196.212 39.3812 195.534 37.7834 193.611 36.202C192.875 35.5874 192.164 35.2023 191.477 35.0466C190.708 34.85 190.225 34.9893 190.029 35.4481C189.915 35.7185 189.816 35.948 189.743 36.1446L189.342 36.8984L187.952 38.9223L186.504 40.9462C185.383 42.5277 184.386 43.8961 183.502 45.0596C181.188 48.2224 179.11 50.8527 177.262 52.9339C174.645 55.8674 173.352 56.695 173.393 55.4249C173.434 54.2286 174.432 51.9507 176.395 48.5912C178.472 45.0022 180.713 41.9131 183.102 39.3238C185.915 36.2347 188.287 34.6369 190.209 34.514C190.52 34.596 190.749 34.5714 190.904 34.4567C191.174 34.3419 191.158 34.0306 190.847 33.5307C190.536 32.9899 190.037 32.4901 189.342 32.0231C187.412 30.712 185.375 30.3843 183.216 31.0398C179.437 32.1951 175.667 35.5792 171.888 41.1757C169.811 44.273 168.355 46.977 167.496 49.3204C166.613 50.4512 165.787 51.4672 165.018 52.3522C162.703 55.0562 161.28 56.2689 160.74 55.9985C160.16 55.6871 161.264 52.8684 164.036 47.5424C164.462 46.6902 165.018 45.6332 165.713 44.3549L166.523 42.8472L167.275 41.3969C168.396 39.3157 169.066 37.9637 169.296 37.3409C169.68 36.2593 169.451 35.1204 168.6 33.9241C167.831 32.8834 166.883 32.1132 165.77 31.6052C165.304 31.2938 164.732 31.0644 164.036 30.9087C162.883 30.5236 161.452 30.9087 159.759 32.064C158.336 33.0719 156.291 35.2842 153.633 38.7257C153.976 38.0292 154.189 37.5704 154.271 37.3327C154.655 36.2511 154.426 35.1122 153.576 33.9159C152.807 32.8752 151.858 32.105 150.746 31.597C150.279 31.2856 149.707 31.0562 149.012 30.9005C147.858 30.5154 146.427 30.9005 144.734 32.0558C143.27 33.0965 141.364 35.145 139.009 38.1931L139.181 37.8489L139.41 37.5048L139.876 36.751C140.301 35.9807 140.301 35.1531 139.876 34.26C139.532 33.4488 138.935 32.695 138.085 31.9985C137.275 31.3839 136.482 30.9742 135.713 30.7858C134.944 30.5564 134.445 30.6711 134.208 31.1299C133.783 32.1378 132.727 34.26 131.026 37.4966C130.413 38.5782 129.701 39.8728 128.892 41.3723C128.663 41.8394 128.352 42.4375 127.967 43.1668L127.501 43.9206L127.158 44.6171L126.348 46.1822C125.677 47.4686 125.105 48.5666 124.614 49.5253C123.788 50.5659 123.035 51.4918 122.365 52.262C120.05 54.966 118.627 56.1787 118.087 55.9083C117.474 55.597 118.611 52.7045 121.498 47.2228C121.923 46.3706 122.479 45.3136 123.174 44.0354L124.041 42.4703C124.352 41.8558 124.598 41.3723 124.794 41.02C125.947 38.8568 126.642 37.472 126.871 36.8493C127.452 35.2269 126.773 33.6291 124.851 32.0395C124.082 31.4249 123.346 31.0152 122.659 30.8268C121.923 30.6301 121.449 30.7694 121.212 31.2283C120.827 32.1951 119.862 34.1453 118.324 37.0787C117.825 38.0456 117.187 39.2829 116.419 40.7824L115.952 41.6509L115.552 42.4621C115.208 43.1176 114.938 43.6175 114.742 43.9698C113.859 45.2071 112.992 46.3788 112.141 47.5014C110.947 49.0418 109.884 50.3938 108.959 51.5574C106.416 54.6874 104.911 56.1296 104.453 55.9001C103.872 55.5888 105.009 52.6963 107.863 47.2146C108.289 46.3624 108.861 45.3054 109.597 44.0272L110.407 42.4621C110.718 41.8804 110.988 41.3969 111.217 41.0118C112.337 38.8486 113.008 37.4638 113.237 36.8411C113.818 35.2187 113.139 33.6209 111.217 32.0313C110.448 31.4167 109.712 31.007 109.017 30.8186C108.281 30.6219 107.806 30.7612 107.569 31.2201C107.185 32.2279 106.162 34.3092 104.502 37.472C103.921 38.5946 103.251 39.881 102.482 41.3477C102.212 41.8476 101.901 42.4457 101.558 43.1422L101.091 43.8961L100.748 44.5925C99.889 46.1822 99.2183 47.6243 98.6949 48.9517C98.6703 48.9845 98.6376 49.0173 98.6131 49.05C97.648 50.2873 96.781 51.3443 96.0122 52.2375C93.6975 54.9415 92.2744 56.1542 91.7346 55.8838C91.1212 55.5724 92.258 52.6799 95.1452 47.1982C95.5705 46.346 96.1267 45.289 96.8219 44.0108L97.6889 42.4457C97.9997 41.8312 98.245 41.3477 98.4413 40.9954C99.5946 38.8322 100.29 37.4474 100.519 36.8247C101.099 35.2023 100.421 33.6045 98.4986 32.0149C97.7298 31.4003 96.9937 30.9906 96.3066 30.8022C95.5705 30.6055 95.0961 30.7448 94.859 31.2037C94.4745 32.1706 93.5094 34.1207 91.9718 37.0541C91.4729 38.021 90.8349 39.2583 90.0661 40.7578L89.5999 41.6263L89.1991 42.4375C88.8556 43.0931 88.5857 43.5929 88.3894 43.9452C87.5061 45.1825 86.6391 46.3542 85.7885 47.4768C84.5944 49.0173 83.5311 50.3693 82.6069 51.5328C80.0632 54.6629 78.5583 56.105 78.1003 55.8756C77.5605 55.6052 77.8549 54.2941 79.2454 51.4017C80.6358 48.5092 82.2961 44.527 82.5251 43.9124C83.1058 42.29 82.427 40.6922 80.5049 39.1108C80.4313 39.0534 80.3659 39.0043 80.2923 38.9551C79.1554 37.6687 76.579 36.4232 72.5386 35.1941C74.338 30.6547 75.434 26.3529 75.8347 22.2805C76.5708 13.4065 73.7 7.19549 67.2387 3.66391C62.3477 1.11561 56.0253 -0.121676 48.2308 0.00942687C41.4341 0.148723 35.0055 1.18116 28.9449 3.11492C17.4126 6.85135 9.02096 12.1282 3.7619 18.9292C-1.76706 26.0743 -1.20272 31.9739 5.46312 36.6444C5.79846 36.8411 6.06018 36.7755 6.26466 36.4478L6.46095 36.0463V35.7431C7.26249 29.737 10.1905 24.034 15.2533 18.626C19.9153 13.6195 25.4116 9.85032 31.7421 7.31021C37.2056 5.10604 42.4647 4.04084 47.5274 4.10639C53.0564 4.10639 57.2522 5.442 60.1148 8.11321C63.5745 11.3826 64.4742 16.5857 62.8139 23.7308C62.1432 26.6642 61.1126 29.737 59.714 32.9408L51.0198 31.9411C47.691 31.9411 45.1882 32.3754 43.5279 33.244C41.5323 34.2436 40.1991 35.6448 39.5284 37.4474C38.9314 39.1846 39.0949 40.9217 40.0273 42.6506C40.2972 43.1832 40.4935 43.388 40.6244 43.2487C40.6898 43.1832 40.8207 43.0521 41.0252 42.8472L41.3278 42.6506L41.6304 42.3474C44.493 40.6103 48.8606 39.4468 54.7167 38.8404L56.8187 38.9387C55.8209 40.7414 54.7167 42.6096 53.5226 44.5434C49.0569 51.7049 44.1659 57.8421 38.8332 62.9797C33.3697 68.2484 28.9694 70.9852 25.6406 71.19C21.1094 71.3948 18.1078 70.3214 16.6437 67.9862C15.7113 66.7161 15.6459 65.5854 16.4474 64.5857C16.0467 60.3167 15.3515 58.6779 14.3455 59.6775C12.7506 61.1443 11.7445 62.4799 11.3438 63.6844C10.7467 65.487 10.8121 67.2897 11.5401 69.0924C12.3416 70.9606 13.6012 72.4928 15.3351 73.6973C18.0014 75.6311 21.1994 76.9667 24.929 77.7042C30.9896 78.9087 38.0153 76.4341 46.0143 70.2969C53.4735 64.6267 60.1066 57.2521 65.8973 48.1733C67.7621 45.2399 69.357 42.3638 70.6902 39.5615C72.6858 39.9138 74.3707 40.3317 75.7448 40.8233C74.2889 44.0845 71.8925 49.3942 71.6962 49.9268C71.5817 50.1972 71.4835 50.4676 71.4099 50.738C71.0991 51.7049 71.0664 53.401 71.2954 55.8346C71.7616 57.3013 73.0703 58.4976 75.2295 59.4235C77.1188 60.2347 80.2923 58.1535 84.7661 53.1716C84.6516 54.2532 84.7089 55.1381 84.9379 55.8346C85.3959 57.3013 86.7127 58.4976 88.8638 59.4235C90.7122 60.2347 93.1986 59.1367 96.323 56.1214C96.6829 55.7608 97.0673 55.3512 97.468 54.9251C97.5089 55.2446 97.5662 55.556 97.6562 55.8346C98.1224 57.3013 99.431 58.4976 101.59 59.4235C103.48 60.2347 106.653 58.1535 111.127 53.1716C111.012 54.2532 111.07 55.1381 111.299 55.8346C111.757 57.3013 113.073 58.4976 115.225 59.4235C117.073 60.2347 119.559 59.1367 122.684 56.1214C122.708 56.0968 122.725 56.0722 122.749 56.0558C122.921 56.4573 123.166 56.867 123.493 57.2849C124.377 58.4075 125.399 59.1613 126.561 59.5464L126.904 59.6612C127.558 59.7759 128 59.6202 128.229 59.1941L128.344 59.022C129.071 57.9814 130.151 56.3426 131.582 54.0975L132.507 52.6472L133.488 51.1395L135.451 48.0668C138.764 43.0111 141.291 39.4959 143.025 37.5294C145.912 34.3256 147.188 33.6291 146.836 35.4481L141.978 44.6581C140.898 46.7393 140.015 48.5584 139.32 50.0989C138.314 52.1064 137.757 53.2863 137.643 53.6304C137.259 54.7858 137.561 56.0067 138.567 57.2767C139.451 58.3993 140.457 59.1531 141.569 59.5382L141.912 59.653C142.64 59.7677 143.09 59.612 143.237 59.1859L143.352 59.0138C144.121 57.9322 145.217 56.2935 146.648 54.0893L147.572 52.639L148.496 51.1313L150.459 48.0586C153.772 42.962 156.299 39.455 158.033 37.5212C160.92 34.3174 162.196 33.6209 161.844 35.4399C160.151 38.8732 158.532 41.9459 156.986 44.6499C154.214 49.8612 153.191 53.5895 153.919 55.8264C154.385 57.2931 155.694 58.4894 157.853 59.4153C159.742 60.2265 162.229 59.1286 165.312 56.1132C165.729 55.7199 166.171 55.2774 166.613 54.8022C166.973 57.1128 168.51 58.7025 171.258 59.5301C172.412 59.8742 173.843 59.4891 175.536 58.3747C177.384 57.1047 179.544 54.9005 182.006 51.7786C181.621 53.401 181.621 54.7284 182.006 55.7772C182.472 57.2849 183.756 58.4812 185.874 59.3662C187.764 60.1774 190.25 59.0794 193.333 56.064C194.454 55.0234 195.648 53.7124 196.916 52.1309C197.341 51.5901 197.824 50.9756 198.363 50.2791L199.001 49.4679C199.271 49.1566 199.468 48.9271 199.582 48.7714C200.187 48.0586 200.13 47.4031 199.443 46.7885Z" fill="black"/>
</svg>
