<svg width="37" height="40" viewBox="0 0 37 40" fill="none" xmlns="http://www.w3.org/2000/svg">
<path d="M32.2626 32.751C31.2515 33.5994 29.9773 34.29 28.44 34.4182C24.6652 34.7268 17.8772 31.5066 12.2207 24.7654C6.55775 18.0166 4.56523 10.7725 5.5246 7.1087C6.56498 3.16801 11.1667 1.68252 11.8207 1.59068C12.92 1.43842 14.0868 2.3 16.1373 4.74368C18.7792 7.89212 17.8854 9.7517 17.1238 10.5865C17.0294 10.6918 16.8673 10.8409 16.6669 11.0221C15.2347 12.3022 14.0345 13.6878 14.9254 15.1073C16.5681 17.7496 17.1595 18.4543 18.2265 19.726C19.2935 20.9976 19.8849 21.7023 22.2017 23.7789C23.4526 24.8963 25.0191 23.9474 26.5273 22.7732C26.7405 22.6074 26.9155 22.4736 27.0356 22.3989C27.99 21.7939 29.9765 21.2366 32.6184 24.3851C34.6689 26.8287 35.3006 28.1262 34.9662 29.19C34.8343 29.5618 33.9173 31.3625 32.2626 32.751ZM9.13761 5.16051C8.39455 5.78401 7.73408 6.59929 7.45972 7.6258C6.65074 10.7066 8.57835 17.3132 13.7464 23.4722C18.9144 29.6312 25.0859 32.6767 28.2668 32.4227C31.0482 32.1904 32.8799 29.0217 33.0563 28.5474C33.0422 28.5461 32.9825 27.9305 31.0734 25.6553C30.3599 24.805 29.0353 23.4753 28.0963 24.0675C28.0132 24.1241 27.8919 24.2129 27.7464 24.335C26.5881 25.2416 23.517 27.6489 20.8509 25.2649C18.4287 23.0939 17.7666 22.3049 16.6803 21.0103C15.594 19.7157 14.9319 18.9267 13.2145 16.1643C11.3298 13.1247 14.2338 10.5182 15.3277 9.53503C15.4668 9.40524 15.5817 9.30883 15.6519 9.23689C16.4046 8.42257 15.3187 6.87956 14.6052 6.02925C12.7026 3.76176 12.1002 3.5884 12.0374 3.57581C11.7764 3.63815 10.348 4.1449 9.13761 5.16051Z" fill="black"/>
</svg>
