<svg width="76" height="76" viewBox="0 0 76 76" fill="none" xmlns="http://www.w3.org/2000/svg">
<path d="M73.25 0.32H70.3C70.22 0.32 70.14 0.33 70.07 0.35L63.3 1.97C62.85 2.08 62.53 2.48 62.53 2.94V3.98H60.97V2.94C60.97 1.21 59.38 0 57.96 0H25.23C23.87 0 22.98 0.84 22.49 1.75H15.83C15.28 1.75 14.83 2.2 14.83 2.75V3.73H13.14V3.14C13.14 1.15 12.09 0 10.26 0C8.62 0 7.51 1.66 7.51 3.2V3.72H4.37C3.82 3.72 3.37 4.17 3.37 4.72C3.37 5.27 3.82 5.72 4.37 5.72H7.52V11.46H2V1C2 0.45 1.55 0 1 0C0.45 0 0 0.45 0 1V16.03C0 16.58 0.45 17.03 1 17.03H5.75C5.39 18.23 5.12 19.4 5.12 20.24C5.12 23.15 8.23 25 9.81 25H14.49L13.09 30.66C13.07 30.74 13.06 30.82 13.06 30.9V33.64C13.06 36 15.08 36 15.94 36H20.02C21.44 36 22.32 35.09 22.32 33.64V30.87C22.32 30.79 22.31 30.71 22.29 30.64L20.94 25H24.07C28.8 25 29.36 30.81 29.36 30.87V34.49C29.36 34.63 29.39 34.77 29.45 34.9C29.6 35.23 29.86 35.69 30.21 36.33C31.82 39.19 35.58 45.89 35.58 53.42C35.58 59.73 33.79 65.13 32.71 68.36C32.17 69.98 31.82 71.04 31.82 71.76C31.82 74.22 34.7 76 36.64 76H45.52C47.09 76 50.07 75.45 52.33 71.76C56.34 65.22 58.37 57.11 58.37 47.65C58.37 32.96 50.24 23.6 49.89 23.21L49.56 22.84C48.13 21.24 45.73 18.55 45.73 16.16C45.73 13.66 47.7 13.53 48.1 13.53H58.14C60.07 13.53 60.95 11.77 60.95 10.13V5.99H62.51V6.9C62.51 7.36 62.82 7.76 63.27 7.87L70.07 9.55C70.15 9.57 70.23 9.58 70.31 9.58H73.23C75.59 9.58 75.59 7.56 75.59 6.7V2.62C75.61 1.2 74.71 0.32 73.25 0.32ZM43.74 16.16C43.74 19.32 46.45 22.36 48.08 24.17L48.4 24.53C48.73 24.9 56.38 33.71 56.38 47.65C56.38 56.74 54.45 64.5 50.63 70.71C48.87 73.57 46.67 74 45.52 74H36.64C35.63 74 33.82 72.87 33.82 71.76C33.82 71.37 34.2 70.21 34.61 68.99C35.72 65.65 37.58 60.06 37.58 53.42C37.58 45.37 33.64 38.35 31.95 35.35C31.7 34.9 31.49 34.53 31.36 34.27V30.88C31.36 29.59 30.09 23.01 24.07 23.01H9.81C9.26 23.01 7.12 21.85 7.12 20.25C7.12 18.56 8.79 14.35 9.43 12.87C9.48 12.75 9.51 12.62 9.51 12.48V3.2C9.51 2.62 9.9 2 10.26 2C10.73 2 11.14 2 11.14 3.14V12.21C11.14 12.76 11.59 13.21 12.14 13.21H23.03C23.58 13.21 24.03 12.76 24.03 12.21V3.4C24.03 3.26 24.32 2 25.23 2H57.95C58.4 2 58.96 2.44 58.96 2.94V10.13C58.96 10.27 58.94 11.53 58.15 11.53H48.11C46.6 11.53 43.74 12.5 43.74 16.16ZM20.31 33.64C20.31 33.88 20.26 33.96 20.27 33.97C20.26 33.97 20.19 34.01 20.02 34.01H15.94C15.35 34.01 15.15 33.96 15.11 33.96C15.1 33.96 15.07 33.98 15.06 33.65V31.04L16.53 25.11H18.91L20.32 31V33.64H20.31ZM16.84 3.75H22.03V5.51H16.84V3.75ZM14.84 5.73V6.51C14.84 7.06 15.29 7.51 15.84 7.51H22.03V11.21H13.14V5.73H14.84ZM2 15.03V13.47H7.02C6.84 13.93 6.63 14.46 6.42 15.03H2ZM73.61 6.7C73.61 7.34 73.56 7.52 73.57 7.54C73.57 7.54 73.49 7.58 73.25 7.58H70.46L64.53 6.11V3.73L70.42 2.32H73.25C73.5 2.32 73.57 2.36 73.58 2.36C73.58 2.37 73.62 2.44 73.62 2.61V6.7H73.61Z" fill="#231F20"/>
</svg>
