<svg width="0" height="0" class="hidden">

  <symbol fill="none" xmlns="http://www.w3.org/2000/svg" viewBox="0 0 62 92" id="woman">
    <path d="M57.403 26.975a1.146 1.146 0 001.451-.692 1.147 1.147 0 00-.692-1.452l-12.02-4.23 2.086-5.931 12.021 4.23a1.147 1.147 0 001.452-.692 1.147 1.147 0 00-.692-1.451l-12.021-4.23 1.236-3.516a1.147 1.147 0 00-.692-1.452L28.166.075a1.147 1.147 0 00-1.451.691l-1.236 3.516L13.469.063a1.147 1.147 0 00-1.452.692c-.204.59.102 1.236.692 1.452l12.021 4.23-2.075 5.92-12.022-4.23a1.147 1.147 0 00-1.451.691c-.216.59.102 1.236.692 1.452l12.02 4.23-2.086 5.931-12.021-4.23a1.147 1.147 0 00-1.452.692c-.204.59.102 1.236.692 1.451l12.021 4.23-2.064 5.92-12.02-4.23a1.147 1.147 0 00-1.453.692c-.204.59.103 1.236.692 1.452l12.021 4.23-2.086 5.931-12.021-4.23a1.147 1.147 0 00-1.452.692c-.204.59.102 1.236.692 1.451l12.02 4.23-2.505 7.111c-.204.59.102 1.236.691 1.452l5.058 1.78-1.735 4.933c-.193.51-1.882 2.847-3.504 5.092-3.697 5.115-8.766 12.124-10.184 16.172-2.314 6.59.556 13.178 6.668 15.322 5.92 2.075 13.314.17 16.025-7.52 1.497-4.264 1.281-11.51 1.1-17.34-.102-3.458-.216-7.03.17-8.12l1.735-4.944 6.01 2.11a1.147 1.147 0 001.452-.692l2.507-7.11 12.02 4.23a1.147 1.147 0 001.452-.693 1.147 1.147 0 00-.691-1.451l-12.022-4.23 2.087-5.931 12.021 4.23a1.147 1.147 0 001.452-.692 1.137 1.137 0 00-.692-1.452l-12.021-4.23 2.087-5.931 12.02 4.23a1.147 1.147 0 001.452-.692 1.137 1.137 0 00-.691-1.451l-12.022-4.23 2.087-5.932 11.999 4.242zM22.734 65.77c.17 5.637.386 12.657-.975 16.524-2.212 6.271-8.279 7.836-13.133 6.124-4.978-1.747-7.201-6.975-5.285-12.43 1.316-3.742 6.476-10.875 9.89-15.593 2.381-3.3 3.55-4.922 3.81-5.66l1.735-4.944 5.988 2.11-1.735 4.944c-.5 1.406-.442 4.174-.295 8.925zm9.878-13.53l-19.2-6.747L28.495 2.592l19.2 6.748-15.083 42.902z" fill="#000"></path>
    <path d="M31.013 8.546a1.145 1.145 0 100-2.29 1.145 1.145 0 000 2.29zm10.671 3.811a1.139 1.139 0 001.452-.704 1.139 1.139 0 00-.704-1.451 1.139 1.139 0 00-1.451.703c-.204.59.113 1.247.703 1.452zm-5.149-1.872a1.145 1.145 0 100-2.29 1.145 1.145 0 000 2.29zm-8.732 6.067a1.139 1.139 0 001.452-.703 1.139 1.139 0 00-.703-1.451 1.139 1.139 0 00-1.452.703c-.204.59.102 1.236.703 1.451zm11.046 3.879a1.139 1.139 0 001.452-.703 1.139 1.139 0 00-.704-1.452 1.139 1.139 0 00-1.451.704c-.204.59.113 1.247.703 1.451zm-5.523-1.939a1.139 1.139 0 001.451-.703 1.139 1.139 0 00-.703-1.452 1.139 1.139 0 00-1.451.703 1.14 1.14 0 00.703 1.452zm-7.984 6.203a1.145 1.145 0 100-2.29 1.145 1.145 0 000 2.29zm10.671 3.811a1.139 1.139 0 001.452-.704 1.139 1.139 0 00-.703-1.451 1.139 1.139 0 00-1.452.703 1.134 1.134 0 00.703 1.452zm-5.148-1.872a1.145 1.145 0 100-2.29 1.145 1.145 0 000 2.29zm-8.743 6.068a1.139 1.139 0 001.451-.703 1.139 1.139 0 00-.703-1.452 1.134 1.134 0 00-1.452.703c-.204.59.114 1.248.704 1.452zm11.045 3.878a1.139 1.139 0 001.452-.703 1.139 1.139 0 00-.703-1.451 1.139 1.139 0 00-1.452.703 1.143 1.143 0 00.703 1.451zm-5.522-1.939a1.139 1.139 0 001.451-.703 1.139 1.139 0 00-.703-1.452 1.134 1.134 0 00-1.451.704c-.204.59.113 1.247.703 1.451zm-7.985 6.203a1.145 1.145 0 100-2.29 1.145 1.145 0 000 2.29zm10.672 3.822a1.139 1.139 0 001.452-.703 1.139 1.139 0 00-.703-1.452 1.139 1.139 0 00-1.452.704c-.204.59.114 1.236.703 1.451zm-5.149-1.882a1.145 1.145 0 100-2.291 1.145 1.145 0 000 2.29z" fill="#000"></path>
  </symbol>

  <symbol fill="none" xmlns="http://www.w3.org/2000/svg" viewBox="0 0 72 73" id="color">
    <path d="M36.463 49.57C70.85 14.2 71.954 2.566 71.98 2.014a1.037 1.037 0 00-.323-.794 1 1 0 00-.821-.256c-.512.067-11.283 1.885-47.03 35.895a.92.92 0 00-.485.472 637.717 637.717 0 00-7.904 7.66.949.949 0 00-.579.58 853.532 853.532 0 00-13.652 13.8A1.016 1.016 0 001.2 60.8c.067.067 6.422 6.274 11.108 10.96a.999.999 0 00.714.296c.242 0 .498-.095.686-.27 8.792-8.2 16.265-15.524 22.607-22.04.053-.068.107-.122.148-.175zm-9.654-12.778c.646-.054 3.447-.094 6.328 3.03 3.07 3.325 3.5 5.802 3.568 6.57-.121.121-.229.242-.35.363-.458-1.52-1.481-3.716-3.85-6.287-2.101-2.276-4.215-3.205-5.817-3.568.04-.027.08-.068.12-.108zm11.593 7.85c-.445-1.495-1.455-3.65-3.77-6.18-2.114-2.303-4.269-3.191-5.844-3.515C54.033 11.372 65.68 5.097 69.558 3.495 68.21 7.454 62.475 19.37 38.402 44.642zM13.035 69.618l-.821-.822 9.68-9.815c.39-.39.39-1.037-.013-1.427a1.004 1.004 0 00-1.427.013l-9.668 9.802-.66-.66 9.695-9.828c.39-.39.39-1.037-.013-1.428a1.004 1.004 0 00-1.428.014l-9.694 9.829c-.229-.23-.444-.431-.66-.66l9.721-9.856a1.003 1.003 0 00-.013-1.427 1.004 1.004 0 00-1.427.013l-9.721 9.856-.66-.66 9.748-9.882c.39-.39.39-1.037-.013-1.427a1.004 1.004 0 00-1.428.013l-9.748 9.896c-.444-.43-.848-.835-1.144-1.117A771.283 771.283 0 0116.4 46.877c1.01-.014 3.568.269 6.194 3.123 3.622 3.945 3.675 6.719 3.662 6.975a738.534 738.534 0 01-13.222 12.643zm14.972-14.38c-.404-1.535-1.414-3.85-3.945-6.61-2.1-2.29-4.241-3.219-5.843-3.569a526.029 526.029 0 016.57-6.342c.97-.026 3.568.23 6.234 3.124 3.043 3.312 3.568 5.803 3.649 6.665a438.44 438.44 0 01-6.665 6.732z" fill="#000"></path>
  </symbol>

  <symbol fill="none" xmlns="http://www.w3.org/2000/svg" viewBox="0 0 47 90" id="men">
    <path d="M46.154 51.583c-.899-13.242-3.825-28.87-6.67-35.573a13.43 13.43 0 00-1.193-2.223c4.692-7.193 4.365-12.425 4.348-12.653-.049-.67-.654-1.194-1.307-1.128a1.249 1.249 0 00-1.145 1.307c0 .05.23 4.43-3.612 10.594-1.194-.883-2.502-1.112-3.826-.572-3.466 1.438-2.877 5.672-1.978 9.22l.033.098C20.766 36.02.953 66.852.69 67.228a1.24 1.24 0 00-.163.931c.065.327.261.605.54.769l8.63 5.395c.197.13.426.18.655.18a1.19 1.19 0 001.03-.573l21.595-33.872c.18-.295.229-.638.147-.981a1.211 1.211 0 00-.621-.769c-.033-.016-3.597-1.929-4.447-5.215-.457-1.782-.032-3.71 1.26-5.721.032-.05.048-.098.08-.147.77-1.178 1.489-2.29 2.191-3.368 1.423 5.803 3.646 16.479 3.433 28.641-.261 15.04-2.583 31.453-2.599 31.617-.049.392.082.768.36 1.046l4.594 4.496c.228.229.539.343.866.343.229 0 .458-.065.654-.196l5.493-3.515c.31-.196.523-.54.555-.915.05-.131 2.11-20.517 1.21-33.791zM25.59 33.19c.032.197.082.393.13.573.393 1.471 1.145 2.697 1.979 3.71L6.822 69.648l-3.384-2.125c2.746-4.25 13.323-20.697 22.15-34.33zM9.993 71.625l-1.095-.686 20.598-31.731c.278.228.54.425.785.588L9.992 71.626zM38.438 87.27l-3.45-3.384c.426-3.139 2.306-17.754 2.535-31.306.261-14.713-2.976-27.252-4.185-31.976l-.164-.654c-1.406-5.542-.049-6.098.54-6.343 1.7-.703 3.253 2.665 3.53 3.351 2.698 6.376 5.608 21.988 6.474 34.788.801 11.803-.784 29.426-1.111 32.86l-4.169 2.664z" fill="#000"></path>
  </symbol>

  <symbol fill="none" xmlns="http://www.w3.org/2000/svg" viewBox="0 0 77 91" id="manik">
    <path d="M10.24 42.541l19.573-3.186M10.24 38.232l19.573-3.187M10.24 33.922l19.573-3.175m.817 13.007h-2.972V30.09H12.393v13.677h-2.97A8.22 8.22 0 001.2 51.988v28.885a8.22 8.22 0 008.222 8.222H30.63a8.22 8.22 0 008.222-8.222V51.976c0-4.536-3.685-8.222-8.222-8.222zM67.147 1.283h-7.792l2.269 18.69h3.254l2.269-18.69zm7.654 88.265H51.69l-1.134-46.724h25.38l-1.134 46.724z" stroke="#000" stroke-width="2" stroke-miterlimit="10" stroke-linecap="round" stroke-linejoin="round"></path>
    <path d="M66.012 19.973H60.49v22.852h5.523V19.973z" stroke="#000" stroke-width="2" stroke-miterlimit="10" stroke-linecap="round" stroke-linejoin="round"></path>
  </symbol>

  <symbol fill="none" xmlns="http://www.w3.org/2000/svg" viewBox="0 0 67 90" id="makija">
    <path d="M24.914 48.629C11.51 48.629.6 37.719.6 24.315.6 10.91 11.51 0 24.914 0 38.32 0 49.23 10.91 49.23 24.314c0 13.405-10.91 24.315-24.315 24.315zm0-46.36c-12.157 0-22.046 9.888-22.046 22.045 0 12.158 9.889 22.047 22.046 22.047s22.047-9.89 22.047-22.046c0-12.158-9.89-22.047-22.047-22.047zm29.01 84.93c-.193 0-.397 0-.601-.012-4.865-.147-10.173-1.996-14.97-5.228-4.797-3.232-8.517-7.462-10.468-11.907-2.007-4.582-1.939-8.858.216-12.044 4.355-6.465 16.047-6.238 26.061.51s14.607 17.499 10.252 23.963c-2.064 3.05-5.773 4.718-10.49 4.718zM38.59 54.889c-3.98 0-7.315 1.327-9.13 4.026-1.825 2.71-1.848 6.43-.078 10.467 1.837 4.174 5.341 8.154 9.889 11.216 4.536 3.062 9.549 4.82 14.096 4.956 4.446.125 7.848-1.293 9.674-4.003 3.856-5.716-.545-15.446-9.81-21.683-4.877-3.3-10.173-4.979-14.64-4.979z" fill="#000"></path>
    <path d="M40.054 83.025c-3.969 2.949-9.277 4.775-15.128 4.775-12.226 0-22.16-7.882-22.16-17.578 0-9.697 9.946-17.578 22.16-17.578 3.084 0 6.022.51 8.698 1.417a15.558 15.558 0 013.584-.703c-3.607-1.735-7.791-2.744-12.282-2.744-13.337 0-24.201 8.8-24.201 19.608 0 10.807 10.853 19.608 24.2 19.608 6.658 0 12.702-2.189 17.08-5.727a35.77 35.77 0 01-1.95-1.078zM26.876 35.927a.715.715 0 01-.34-.079.799.799 0 01-.374-1.066l9.48-19.676a.799.799 0 111.44.692l-9.48 19.676a.805.805 0 01-.726.453zm1.746 5.773a.714.714 0 01-.34-.08.799.799 0 01-.374-1.066l9.48-19.676a.799.799 0 111.44.692l-9.48 19.676a.826.826 0 01-.726.454z" fill="#000"></path>
    <path d="M19.21 52.712a.813.813 0 01-.817-.817v-4.899c0-.454.363-.817.816-.817.454 0 .817.363.817.817v4.9a.82.82 0 01-.817.816zm11.42 0a.813.813 0 01-.816-.817v-4.899c0-.454.362-.817.816-.817.454 0 .817.363.817.817v4.9a.813.813 0 01-.817.816zm5.76 27.808c-3.095 2.007-7.098 3.231-11.476 3.231-9.787 0-17.737-6.067-17.737-13.53 0-7.461 7.961-13.529 17.737-13.529 1.361 0 2.688.125 3.958.352.442-.5.93-.93 1.463-1.327a24.137 24.137 0 00-5.42-.612c-10.661 0-19.337 6.781-19.337 15.128 0 8.347 8.676 15.129 19.336 15.129 4.922 0 9.401-1.463 12.815-3.834-.453-.34-.907-.669-1.338-1.009z" fill="#000"></path>
  </symbol>

  <symbol fill="none" xmlns="http://www.w3.org/2000/svg" viewBox="0 0 76 76" id="pircing">
    <path d="M73.25.32H70.3c-.08 0-.16.01-.23.03L63.3 1.97c-.45.11-.77.51-.77.97v1.04h-1.56V2.94c0-1.73-1.59-2.94-3.01-2.94H25.23c-1.36 0-2.25.84-2.74 1.75h-6.66c-.55 0-1 .45-1 1v.98h-1.69v-.59c0-1.99-1.05-3.14-2.88-3.14-1.64 0-2.75 1.66-2.75 3.2v.52H4.37c-.55 0-1 .45-1 1s.45 1 1 1h3.15v5.74H2V1c0-.55-.45-1-1-1S0 .45 0 1v15.03c0 .55.45 1 1 1h4.75c-.36 1.2-.63 2.37-.63 3.21 0 2.91 3.11 4.76 4.69 4.76h4.68l-1.4 5.66c-.02.08-.03.16-.03.24v2.74c0 2.36 2.02 2.36 2.88 2.36h4.08c1.42 0 2.3-.91 2.3-2.36v-2.77c0-.08-.01-.16-.03-.23L20.94 25h3.13c4.73 0 5.29 5.81 5.29 5.87v3.62c0 .14.03.28.09.41.15.33.41.79.76 1.43 1.61 2.86 5.37 9.56 5.37 17.09 0 6.31-1.79 11.71-2.87 14.94-.54 1.62-.89 2.68-.89 3.4 0 2.46 2.88 4.24 4.82 4.24h8.88c1.57 0 4.55-.55 6.81-4.24 4.01-6.54 6.04-14.65 6.04-24.11 0-14.69-8.13-24.05-8.48-24.44l-.33-.37c-1.43-1.6-3.83-4.29-3.83-6.68 0-2.5 1.97-2.63 2.37-2.63h10.04c1.93 0 2.81-1.76 2.81-3.4V5.99h1.56v.91c0 .46.31.86.76.97l6.8 1.68c.08.02.16.03.24.03h2.92c2.36 0 2.36-2.02 2.36-2.88V2.62c.02-1.42-.88-2.3-2.34-2.3zM43.74 16.16c0 3.16 2.71 6.2 4.34 8.01l.32.36c.33.37 7.98 9.18 7.98 23.12 0 9.09-1.93 16.85-5.75 23.06-1.76 2.86-3.96 3.29-5.11 3.29h-8.88c-1.01 0-2.82-1.13-2.82-2.24 0-.39.38-1.55.79-2.77 1.11-3.34 2.97-8.93 2.97-15.57 0-8.05-3.94-15.07-5.63-18.07-.25-.45-.46-.82-.59-1.08v-3.39c0-1.29-1.27-7.87-7.29-7.87H9.81c-.55 0-2.69-1.16-2.69-2.76 0-1.69 1.67-5.9 2.31-7.38.05-.12.08-.25.08-.39V3.2c0-.58.39-1.2.75-1.2.47 0 .88 0 .88 1.14v9.07c0 .55.45 1 1 1h10.89c.55 0 1-.45 1-1V3.4c0-.14.29-1.4 1.2-1.4h32.72c.45 0 1.01.44 1.01.94v7.19c0 .14-.02 1.4-.81 1.4H48.11c-1.51 0-4.37.97-4.37 4.63zM20.31 33.64c0 .24-.05.32-.04.33-.01 0-.08.04-.25.04h-4.08c-.59 0-.79-.05-.83-.05-.01 0-.04.02-.05-.31v-2.61l1.47-5.93h2.38L20.32 31v2.64h-.01zM16.84 3.75h5.19v1.76h-5.19V3.75zm-2 1.98v.78c0 .55.45 1 1 1h6.19v3.7h-8.89V5.73h1.7zM2 15.03v-1.56h5.02c-.18.46-.39.99-.6 1.56H2zM73.61 6.7c0 .64-.05.82-.04.84 0 0-.08.04-.32.04h-2.79l-5.93-1.47V3.73l5.89-1.41h2.83c.25 0 .32.04.33.04 0 .01.04.08.04.25V6.7h-.01z" fill="#231F20"></path>
  </symbol>

</svg>