<svg width="40" height="40" viewBox="0 0 40 40" fill="none" xmlns="http://www.w3.org/2000/svg">
<circle cx="20" cy="20" r="19" fill="white" stroke="#696A86" stroke-width="2"/>
<path d="M31.9066 26.1776C31.8764 26.1125 31.8483 26.0586 31.8221 26.0153C31.3897 25.2364 30.5632 24.2803 29.3432 23.1468L29.3174 23.1209L29.3045 23.1081L29.2915 23.0951H29.2784C28.7247 22.5673 28.3741 22.2124 28.2273 22.0307C27.9586 21.6846 27.8984 21.3342 28.0452 20.9792C28.149 20.711 28.5386 20.1446 29.2133 19.2792C29.5682 18.8206 29.8493 18.453 30.0569 18.1761C31.5539 16.1859 32.2029 14.9142 32.0038 14.3604L31.9264 14.2309C31.8745 14.153 31.7404 14.0818 31.5243 14.0167C31.3077 13.9519 31.0309 13.9411 30.6934 13.9844L26.9557 14.0102C26.8951 13.9887 26.8086 13.9907 26.696 14.0167C26.5835 14.0427 26.5272 14.0558 26.5272 14.0558L26.4622 14.0883L26.4105 14.1273C26.3672 14.1532 26.3196 14.1986 26.2677 14.2635C26.216 14.3282 26.1728 14.4041 26.1382 14.4906C25.7313 15.5376 25.2686 16.511 24.7493 17.4108C24.4292 17.9473 24.1351 18.4123 23.8666 18.806C23.5985 19.1996 23.3735 19.4896 23.1919 19.6754C23.0101 19.8615 22.846 20.0106 22.6986 20.1232C22.5515 20.2358 22.4391 20.2834 22.3614 20.266C22.2834 20.2486 22.21 20.2313 22.1405 20.214C22.0194 20.1361 21.9221 20.0302 21.8486 19.8961C21.7749 19.7619 21.7253 19.5932 21.6993 19.3898C21.6735 19.1864 21.6582 19.0113 21.6539 18.8642C21.6498 18.7172 21.6517 18.5093 21.6604 18.2411C21.6694 17.9728 21.6735 17.7912 21.6735 17.6961C21.6735 17.3672 21.6799 17.0103 21.6928 16.6253C21.7059 16.2402 21.7164 15.9352 21.7253 15.7104C21.7341 15.4855 21.7382 15.2474 21.7382 14.9965C21.7382 14.7456 21.7229 14.5488 21.6928 14.406C21.6629 14.2633 21.6172 14.1248 21.5568 13.9906C21.4962 13.8565 21.4073 13.7528 21.2908 13.6791C21.174 13.6056 21.0288 13.5472 20.856 13.5038C20.3974 13.4001 19.8134 13.3439 19.1037 13.3352C17.4945 13.3179 16.4604 13.4218 16.0018 13.6468C15.8201 13.7419 15.6557 13.8717 15.5087 14.036C15.3529 14.2264 15.3312 14.3304 15.4437 14.3475C15.9629 14.4252 16.3305 14.6113 16.5468 14.9055L16.6248 15.0613C16.6854 15.1738 16.7459 15.3729 16.8065 15.6584C16.867 15.9439 16.9061 16.2597 16.9233 16.6056C16.9665 17.2373 16.9665 17.7781 16.9233 18.228C16.88 18.678 16.839 19.0283 16.8 19.2793C16.7609 19.5302 16.7026 19.7335 16.6248 19.8892C16.5468 20.045 16.4949 20.1402 16.4689 20.1747C16.443 20.2093 16.4213 20.231 16.4041 20.2396C16.2917 20.2827 16.1747 20.3046 16.0537 20.3046C15.9324 20.3046 15.7854 20.244 15.6124 20.1228C15.4394 20.0016 15.2599 19.8351 15.0739 19.6231C14.8878 19.4111 14.678 19.1147 14.4443 18.734C14.2107 18.3534 13.9684 17.9035 13.7175 17.3843L13.5099 17.0079C13.3801 16.7657 13.2028 16.413 12.9779 15.9502C12.7527 15.4872 12.5538 15.0393 12.3808 14.6067C12.3117 14.425 12.2078 14.2867 12.0694 14.1915L12.0044 14.1524C11.9612 14.1179 11.8919 14.0812 11.7968 14.0421C11.7016 14.0031 11.6022 13.9751 11.4983 13.9578L7.94212 13.9837C7.57873 13.9837 7.33216 14.066 7.20234 14.2304L7.15038 14.3082C7.12442 14.3515 7.11133 14.4207 7.11133 14.5159C7.11133 14.6111 7.13728 14.7279 7.18924 14.8663C7.70838 16.0864 8.27292 17.2631 8.88288 18.3965C9.49284 19.53 10.0229 20.443 10.4727 21.1348C10.9226 21.8271 11.3812 22.4804 11.8484 23.0946C12.3157 23.709 12.625 24.1027 12.7763 24.2756C12.9279 24.4489 13.0469 24.5785 13.1334 24.665L13.4579 24.9764C13.6656 25.1841 13.9705 25.4329 14.3728 25.7227C14.7753 26.0126 15.2208 26.2981 15.7097 26.5796C16.1986 26.8605 16.7674 27.0898 17.4165 27.2672C18.0654 27.4447 18.697 27.5159 19.3113 27.4815H20.8039C21.1066 27.4554 21.336 27.3602 21.4918 27.1959L21.5435 27.1309C21.5782 27.0792 21.6107 26.999 21.6407 26.891C21.6711 26.7829 21.6862 26.6637 21.6862 26.5341C21.6773 26.1622 21.7056 25.8269 21.7704 25.5284C21.835 25.23 21.9088 25.0051 21.9912 24.8536C22.0737 24.7022 22.1667 24.5744 22.2702 24.4709C22.3739 24.3671 22.4478 24.3042 22.4912 24.2826C22.5343 24.2608 22.5687 24.246 22.5947 24.2372C22.8023 24.168 23.0467 24.235 23.3282 24.4385C23.6094 24.6419 23.8732 24.8929 24.12 25.1913C24.3666 25.49 24.6629 25.825 25.0089 26.197C25.3552 26.5691 25.6579 26.8458 25.9174 27.0277L26.1769 27.1835C26.3501 27.2874 26.5751 27.3826 26.8521 27.4691C27.1285 27.5555 27.3707 27.5772 27.5787 27.534L30.9011 27.4821C31.2297 27.4821 31.4854 27.4277 31.6668 27.3198C31.8485 27.2116 31.9565 27.0925 31.9913 26.9629C32.026 26.8331 32.0279 26.6859 31.9979 26.5214C31.9671 26.3572 31.9368 26.2424 31.9066 26.1776Z" fill="#696A86"/>
</svg>
