<svg width="62" height="92" viewBox="0 0 62 92" fill="none" xmlns="http://www.w3.org/2000/svg">
<path d="M57.4026 26.9747C57.9923 27.1789 58.6388 26.8727 58.8542 26.2829C59.0584 25.6932 58.7522 25.0468 58.1624 24.8313L46.1413 20.6012L48.228 14.67L60.2491 18.9001C60.8389 19.1043 61.4853 18.7981 61.7008 18.2083C61.9049 17.6186 61.5987 16.9722 61.009 16.7567L48.9878 12.5266L50.2239 9.01102C50.4281 8.4213 50.1219 7.77488 49.5322 7.55941L28.1662 0.0745281C27.5765 -0.129605 26.9301 0.176595 26.7146 0.766312L25.4785 4.28194L13.4686 0.0631874C12.8789 -0.140946 12.2325 0.165254 12.017 0.754972C11.8129 1.34469 12.1191 1.99111 12.7088 2.20658L24.73 6.43667L22.6546 12.3565L10.6335 8.12644C10.0437 7.92231 9.39732 8.22851 9.18184 8.81823C8.96637 9.40794 9.28391 10.0544 9.87363 10.2698L21.8948 14.4999L19.8081 20.4311L7.78693 16.201C7.19722 15.9969 6.5508 16.3031 6.33532 16.8928C6.13119 17.4825 6.43739 18.129 7.02711 18.3444L19.0483 22.5745L16.9843 28.4944L4.96309 24.2643C4.37338 24.0602 3.72696 24.3664 3.51148 24.9561C3.30735 25.5458 3.61355 26.1922 4.20326 26.4077L16.2244 30.6378L14.1377 36.569L2.11657 32.3389C1.52685 32.1348 0.880432 32.441 0.664958 33.0307C0.460825 33.6204 0.767026 34.2668 1.35674 34.4823L13.3779 38.7124L10.8716 45.823C10.6675 46.4127 10.9737 47.0591 11.5634 47.2746L16.6214 49.0551L14.8862 53.9883C14.6934 54.4987 13.0037 56.8348 11.3819 59.0803C7.68487 64.195 2.61556 71.2035 1.19797 75.2522C-1.11554 81.8411 1.75367 88.4301 7.86632 90.5735C13.7862 92.6489 21.1803 90.7436 23.8908 83.0546C25.3877 78.7905 25.1723 71.5438 24.9908 65.7146C24.8888 62.2557 24.7753 58.6834 25.1609 57.5947L26.8961 52.6501L32.9066 54.7595C33.4964 54.9636 34.1428 54.6574 34.3583 54.0677L36.8646 46.9571L48.8857 51.1872C49.4754 51.3913 50.1219 51.0851 50.3373 50.4954C50.5415 49.9057 50.2353 49.2592 49.6456 49.0438L37.6244 44.8137L39.7111 38.8825L51.7323 43.1126C52.322 43.3167 52.9684 43.0105 53.1839 42.4208C53.3993 41.8311 53.0818 41.1847 52.4921 40.9692L40.4709 36.7391L42.5576 30.8079L54.5788 35.038C55.1685 35.2421 55.8149 34.9359 56.0304 34.3462C56.2459 33.7565 55.9283 33.1101 55.3386 32.8946L43.3174 28.6645L45.4041 22.7333L57.4026 26.9747ZM22.734 65.7713C22.9041 71.4077 23.1196 78.4276 21.7587 82.2948C19.5473 88.5662 13.48 90.1312 8.62615 88.4188C3.64757 86.6723 1.42479 81.4442 3.34137 75.9893C4.65689 72.2469 9.81693 65.1136 13.2305 60.3958C15.612 57.0957 16.7801 55.474 17.041 54.7368L18.7761 49.7923L24.764 51.9016L23.0289 56.8462C22.5299 58.2524 22.5866 61.0196 22.734 65.7713ZM32.6118 52.2419L13.4119 45.4941L28.4951 2.59217L47.695 9.3399L32.6118 52.2419Z" fill="black"/>
<path d="M31.0126 8.54595C31.6452 8.54595 32.158 8.03313 32.158 7.40054C32.158 6.76795 31.6452 6.25513 31.0126 6.25513C30.38 6.25513 29.8672 6.76795 29.8672 7.40054C29.8672 8.03313 30.38 8.54595 31.0126 8.54595Z" fill="black"/>
<path d="M41.684 12.3566C42.2737 12.5607 42.9315 12.2545 43.1356 11.6534C43.3397 11.0637 43.0335 10.4059 42.4325 10.2018C41.8428 9.99768 41.185 10.3039 40.9809 10.9049C40.7767 11.4947 41.0943 12.1524 41.684 12.3566Z" fill="black"/>
<path d="M36.5351 10.4853C37.1677 10.4853 37.6805 9.97247 37.6805 9.33987C37.6805 8.70728 37.1677 8.19446 36.5351 8.19446C35.9025 8.19446 35.3896 8.70728 35.3896 9.33987C35.3896 9.97247 35.9025 10.4853 36.5351 10.4853Z" fill="black"/>
<path d="M27.8033 16.5525C28.393 16.7567 29.0508 16.4505 29.2549 15.8494C29.4591 15.2597 29.1529 14.6019 28.5518 14.3978C27.9621 14.1937 27.3043 14.4999 27.1002 15.1009C26.8961 15.6906 27.2023 16.3371 27.8033 16.5525Z" fill="black"/>
<path d="M38.849 20.4311C39.4387 20.6353 40.0965 20.3291 40.3006 19.728C40.5048 19.1383 40.1986 18.4805 39.5975 18.2764C39.0078 18.0723 38.35 18.3785 38.1459 18.9795C37.9418 19.5692 38.2593 20.227 38.849 20.4311Z" fill="black"/>
<path d="M33.3258 18.4919C33.9155 18.696 34.5733 18.3898 34.7774 17.7887C34.9815 17.199 34.6753 16.5413 34.0743 16.3371C33.4845 16.133 32.8268 16.4392 32.6227 17.0403C32.4185 17.63 32.7247 18.2877 33.3258 18.4919Z" fill="black"/>
<path d="M25.3417 24.6952C25.9743 24.6952 26.4871 24.1824 26.4871 23.5498C26.4871 22.9172 25.9743 22.4044 25.3417 22.4044C24.7091 22.4044 24.1963 22.9172 24.1963 23.5498C24.1963 24.1824 24.7091 24.6952 25.3417 24.6952Z" fill="black"/>
<path d="M36.0133 28.5057C36.603 28.7098 37.2608 28.4036 37.4649 27.8025C37.669 27.2128 37.3628 26.5551 36.7618 26.3509C36.172 26.1468 35.5143 26.453 35.3102 27.0541C35.106 27.6551 35.4122 28.3015 36.0133 28.5057Z" fill="black"/>
<path d="M30.8651 26.6345C31.4977 26.6345 32.0106 26.1217 32.0106 25.4891C32.0106 24.8565 31.4977 24.3437 30.8651 24.3437C30.2325 24.3437 29.7197 24.8565 29.7197 25.4891C29.7197 26.1217 30.2325 26.6345 30.8651 26.6345Z" fill="black"/>
<path d="M22.1215 32.7018C22.7112 32.9059 23.369 32.5997 23.5731 31.9986C23.7772 31.4089 23.471 30.7512 22.87 30.547C22.2689 30.3429 21.6225 30.6491 21.4184 31.2502C21.2142 31.8399 21.5318 32.4976 22.1215 32.7018Z" fill="black"/>
<path d="M33.1674 36.5803C33.7571 36.7844 34.4149 36.4782 34.619 35.8772C34.8231 35.2875 34.5169 34.6297 33.9159 34.4256C33.3262 34.2214 32.6684 34.5276 32.4643 35.1287C32.2601 35.7298 32.5777 36.3762 33.1674 36.5803Z" fill="black"/>
<path d="M27.6449 34.6411C28.2347 34.8452 28.8924 34.539 29.0965 33.938C29.3007 33.3483 28.9945 32.6905 28.3934 32.4864C27.7924 32.2822 27.1459 32.5884 26.9418 33.1895C26.7377 33.7792 27.0552 34.437 27.6449 34.6411Z" fill="black"/>
<path d="M19.6601 40.8445C20.2927 40.8445 20.8055 40.3317 20.8055 39.6991C20.8055 39.0665 20.2927 38.5536 19.6601 38.5536C19.0275 38.5536 18.5146 39.0665 18.5146 39.6991C18.5146 40.3317 19.0275 40.8445 19.6601 40.8445Z" fill="black"/>
<path d="M30.3324 44.6662C30.9221 44.8704 31.5799 44.5642 31.784 43.9631C31.9882 43.3734 31.682 42.7156 31.0809 42.5115C30.4912 42.3074 29.8334 42.6136 29.6293 43.2146C29.4252 43.8043 29.7427 44.4508 30.3324 44.6662Z" fill="black"/>
<path d="M25.1835 42.7837C25.8161 42.7837 26.3289 42.2709 26.3289 41.6383C26.3289 41.0057 25.8161 40.4929 25.1835 40.4929C24.5509 40.4929 24.0381 41.0057 24.0381 41.6383C24.0381 42.2709 24.5509 42.7837 25.1835 42.7837Z" fill="black"/>
</svg>
