<svg width="62" height="85" viewBox="0 0 62 85" fill="none" xmlns="http://www.w3.org/2000/svg">
<path d="M41.1598 39.6499H20.5698C20.0198 39.6499 19.5698 40.0999 19.5698 40.6499V50.9099C19.5698 53.3199 21.5298 55.2799 23.9398 55.2799H37.7698C40.1898 55.2799 42.1598 53.3099 42.1598 50.8899V40.6499C42.1598 40.0999 41.7098 39.6499 41.1598 39.6499ZM40.1598 50.8799C40.1598 52.1999 39.0898 53.2699 37.7698 53.2699H23.9398C22.6298 53.2699 21.5698 52.2099 21.5698 50.8999V41.6399H40.1598V50.8799Z" fill="black"/>
<path d="M24.7402 53.04C25.2902 53.04 25.7402 52.59 25.7402 52.04V42.77C25.7402 42.22 25.2902 41.77 24.7402 41.77C24.1902 41.77 23.7402 42.22 23.7402 42.77V52.04C23.7402 52.59 24.1902 53.04 24.7402 53.04Z" fill="black"/>
<path d="M35.0103 53.04C35.5603 53.04 36.0103 52.59 36.0103 52.04V42.77C36.0103 42.22 35.5603 41.77 35.0103 41.77C34.4603 41.77 34.0103 42.22 34.0103 42.77V52.04C34.0103 52.59 34.4603 53.04 35.0103 53.04Z" fill="black"/>
<path d="M61.33 49.3C60.22 44.95 56.55 43.04 53.98 42.22C53.4 41.33 52.54 40.91 51.93 40.72C50.1 40.15 46.04 36.86 43.77 28.51C41.62 20.6 41.8 16.77 41.87 15.32C41.88 15.12 41.89 14.96 41.89 14.84C41.89 12.92 41 11.72 39.5 11.54V7.09C39.5 5.38 38.62 3.58 37.15 2.26C36 1.23 33.94 0 30.67 0C24.51 0 21.84 4.7 21.84 7.09V11.69C20.53 12.03 19.43 13.07 19.43 14.95C19.43 15.16 19.04 35.87 10.34 40.34C10.27 40.37 9.47003 40.77 8.68003 41.67C7.50003 41.1 6.19003 40.14 5.93003 38.6C5.32002 34.99 7.45003 32.48 10.76 29.05C13.47 26.24 16.28 23.34 17.35 18.45C18.35 13.9 16.14 8.13 15.89 7.49C15.6 6.77 15.05 6.2 14.34 5.89C13.62 5.58 12.83 5.57 12.11 5.86C10.61 6.45 9.88002 8.15 10.47 9.65C10.95 10.85 12.19 14.82 11.66 17.21C10.94 20.48 9.01003 22.48 6.57003 25.01C3.57003 28.11 -0.959975 32.8 0.180025 39.59C0.950025 44.15 4.61003 46.37 7.14003 47.38V76.86C7.14003 78.55 8.23003 80.26 10.3 80.26H46.34C46.83 81.45 47.28 82.3 47.41 82.52C47.94 83.47 48.93 84.01 49.95 84.01C50.42 84.01 50.9 83.89 51.35 83.65C52.63 82.94 53.15 81.4 52.64 80.07C53.72 79.71 54.58 78.81 54.58 77.28C54.58 76.71 54.59 71.9 54.6 66.13C55.03 65.62 55.5 65.1 56.01 64.5L56.17 64.32C59.77 60.17 62.91 55.49 61.33 49.3ZM48.73 72.26C47.96 75.63 50.68 80.62 50.71 80.67C50.95 81.11 50.79 81.66 50.36 81.9C49.93 82.14 49.38 81.98 49.14 81.55C47.99 79.48 46.24 75.1 46.98 71.87C47.87 68 49.85 65.74 53.13 62L53.29 61.82C56.69 57.94 58.73 54.49 57.66 50.26C56.58 46.03 51.02 45.43 50.97 45.43C50.47 45.38 50.11 44.94 50.16 44.44C50.2 44.01 50.55 43.67 50.98 43.63C51.03 43.63 51.09 43.63 51.15 43.63C51.43 43.66 58.03 44.38 59.41 49.81C60.76 55.11 57.92 59.28 54.65 63.01L54.5 63.19C51.39 66.7 49.52 68.83 48.73 72.26ZM54.61 49C55.12 49.45 55.53 50.01 55.71 50.73C56.26 52.89 55.8 54.78 54.59 56.79C54.59 56.3 54.59 55.81 54.59 55.32C54.6 52.96 54.6 50.78 54.61 49ZM35.81 3.75C36.86 4.69 37.49 5.94 37.49 7.09V16.11C37.49 16.53 37.15 16.87 36.73 16.87C36.31 16.87 35.97 16.53 35.97 16.11V7.09C35.97 5.85 34.41 3.52 30.66 3.52C26.88 3.52 25.43 6.12 25.35 7.11V16.11C25.35 16.53 25.01 16.87 24.59 16.87C24.17 16.87 23.83 16.53 23.83 16.11V7.09C23.83 5.59 25.8 2 30.66 2C33.3 2 34.92 2.95 35.81 3.75ZM27.36 7.24C27.47 6.97 28.2 5.53 30.67 5.53C33.2 5.53 33.94 6.87 33.98 7.1V11.53C31.01 11.55 27.87 11.57 27.75 11.57H27.37L27.36 7.24ZM7.99003 26.39C10.44 23.86 12.75 21.46 13.59 17.64C14.36 14.15 12.33 8.97 12.31 8.92C12.12 8.45 12.35 7.92 12.83 7.73C12.94 7.69 13.05 7.67 13.17 7.67C13.29 7.67 13.42 7.7 13.53 7.75C13.76 7.85 13.93 8.03 14.02 8.25C14.86 10.37 16.1 14.82 15.39 18.04C14.44 22.38 11.83 25.07 9.31003 27.68C5.81003 31.31 3.18003 34.44 3.95003 38.95C4.68003 43.25 10.21 44.34 10.27 44.35C10.51 44.39 10.72 44.53 10.86 44.73C11 44.93 11.05 45.18 11.01 45.42C10.92 45.91 10.43 46.24 9.94003 46.16C9.66003 46.11 3.09003 44.84 2.14003 39.26C1.16003 33.46 4.94003 29.54 7.99003 26.39ZM10.28 78.24C9.18003 78.24 9.12003 77.07 9.12003 76.84V48.02C9.37003 48.08 9.53003 48.11 9.57003 48.12C9.75003 48.15 9.93003 48.17 10.1 48.17C11.51 48.17 12.71 47.17 12.97 45.78C13.11 45.01 12.95 44.24 12.5 43.6C12.09 43 11.48 42.6 10.79 42.43C11.02 42.26 11.19 42.16 11.22 42.15C21.15 37.05 21.43 15.19 21.43 14.97C21.43 14.47 21.58 14.12 21.84 13.88V16.12C21.84 17.64 23.08 18.88 24.6 18.88C26.12 18.88 27.36 17.64 27.36 16.12V13.57H27.75C27.75 13.57 30.94 13.55 33.97 13.53V16.12C33.97 17.64 35.21 18.88 36.73 18.88C38.25 18.88 39.49 17.64 39.49 16.12V13.59C39.7 13.71 39.88 14.03 39.88 14.85C39.88 14.94 39.87 15.07 39.87 15.23C39.8 16.76 39.61 20.82 41.84 29.03C44.07 37.25 47.73 40.59 49.81 41.88C48.91 42.3 48.25 43.18 48.15 44.22C47.99 45.81 49.16 47.24 50.73 47.4C50.75 47.4 51.6 47.51 52.6 47.88C52.6 49.82 52.59 52.44 52.59 55.33C52.59 56.69 52.58 58.11 52.58 59.55C52.32 59.86 52.06 60.17 51.77 60.5L51.61 60.68C48.24 64.52 46.01 67.06 45.01 71.43C44.49 73.7 44.94 76.2 45.58 78.26H10.28V78.24ZM52.55 77.26C52.55 77.48 52.54 78.09 51.76 78.21C51.05 76.52 50.34 74.18 50.68 72.7C51.03 71.16 51.63 69.94 52.57 68.62C52.56 73.22 52.55 76.77 52.55 77.26Z" fill="black"/>
</svg>
